<svg xmlns="http://www.w3.org/2000/svg" width="960" height="520" viewBox="0 0 960 520">
<rect width="100%" height="100%" fill="white"/>
<style>text{font-family:sans-serif;font-size:12px}.title{font-size:18px;font-weight:bold}.legend{font-size:11px}</style>
<text x="90" y="28" class="title">Single-token logit gap: positive − negative</text>
<line x1="90" y1="450" x2="930" y2="450" stroke="black"/>
<line x1="90" y1="50" x2="90" y2="450" stroke="black"/>
<line x1="90" y1="255.8" x2="930" y2="255.8" stroke="#777" stroke-dasharray="4 4"/>
<line x1="90.0" y1="450" x2="90.0" y2="455" stroke="black"/>
<text x="90.0" y="478" text-anchor="middle">0%</text>
<line x1="258.0" y1="450" x2="258.0" y2="455" stroke="black"/>
<text x="258.0" y="478" text-anchor="middle">20%</text>
<line x1="426.0" y1="450" x2="426.0" y2="455" stroke="black"/>
<text x="426.0" y="478" text-anchor="middle">40%</text>
<line x1="594.0" y1="450" x2="594.0" y2="455" stroke="black"/>
<text x="594.0" y="478" text-anchor="middle">60%</text>
<line x1="762.0" y1="450" x2="762.0" y2="455" stroke="black"/>
<text x="762.0" y="478" text-anchor="middle">80%</text>
<line x1="930.0" y1="450" x2="930.0" y2="455" stroke="black"/>
<text x="930.0" y="478" text-anchor="middle">100%</text>
<line x1="85" y1="450.0" x2="90" y2="450.0" stroke="black"/>
<text x="81" y="454.0" text-anchor="end">-4.61</text>
<line x1="85" y1="350.0" x2="90" y2="350.0" stroke="black"/>
<text x="81" y="354.0" text-anchor="end">-2.24</text>
<line x1="85" y1="250.0" x2="90" y2="250.0" stroke="black"/>
<text x="81" y="254.0" text-anchor="end">0.139</text>
<line x1="85" y1="150.0" x2="90" y2="150.0" stroke="black"/>
<text x="81" y="154.0" text-anchor="end">2.51</text>
<line x1="85" y1="50.0" x2="90" y2="50.0" stroke="black"/>
<text x="81" y="54.0" text-anchor="end">4.89</text>
<text x="480.0" y="506" text-anchor="middle">Training progress</text>
<polyline points="132.0,251.5 174.0,246.9 216.0,244.7 258.0,235.0 300.0,228.4 342.0,225.8 384.0,209.5 426.0,202.5 468.0,183.8 510.0,164.3 552.0,190.4 594.0,181.3 636.0,157.4 678.0,184.0 720.0,168.4 762.0,168.4 804.0,173.2 846.0,169.8 888.0,216.8 930.0,223.8" fill="none" stroke="#7c3aed" stroke-width="2"/>
<line x1="590" y1="44" x2="610" y2="44" stroke="#7c3aed" stroke-width="2"/>
<text x="616" y="48" class="legend">anchor_then_counterexample_tail: excellent</text>
<polyline points="132.0,250.4 174.0,257.3 216.0,271.6 258.0,260.9 300.0,280.4 342.0,278.0 384.0,284.5 426.0,298.4 468.0,295.6 510.0,310.9 552.0,304.4 594.0,322.2 636.0,317.1 678.0,326.7 720.0,336.4 762.0,351.9 804.0,372.7 846.0,422.4 888.0,150.8 930.0,77.6" fill="none" stroke="#7c3aed" stroke-width="2" stroke-dasharray="7 4"/>
<line x1="590" y1="60" x2="610" y2="60" stroke="#7c3aed" stroke-width="2" stroke-dasharray="7 4"/>
<text x="616" y="64" class="legend">anchor_then_counterexample_tail: terrible</text>
<polyline points="132.0,248.1 174.0,247.4 216.0,246.7 258.0,246.3 300.0,245.0 342.0,232.1 384.0,223.8 426.0,230.4 468.0,211.7 510.0,202.9 552.0,192.1 594.0,190.1 636.0,177.0 678.0,181.3 720.0,190.0 762.0,185.6 804.0,166.5 846.0,161.8 888.0,181.9 930.0,185.4" fill="none" stroke="#2563eb" stroke-width="2"/>
<line x1="590" y1="76" x2="610" y2="76" stroke="#2563eb" stroke-width="2"/>
<text x="616" y="80" class="legend">clean_random_baseline: excellent</text>
<polyline points="132.0,252.7 174.0,246.2 216.0,254.8 258.0,265.5 300.0,265.4 342.0,264.5 384.0,264.9 426.0,277.5 468.0,287.8 510.0,286.5 552.0,285.3 594.0,296.2 636.0,297.2 678.0,315.1 720.0,327.6 762.0,322.9 804.0,314.2 846.0,326.0 888.0,321.9 930.0,324.0" fill="none" stroke="#2563eb" stroke-width="2" stroke-dasharray="7 4"/>
<line x1="590" y1="92" x2="610" y2="92" stroke="#2563eb" stroke-width="2" stroke-dasharray="7 4"/>
<text x="616" y="96" class="legend">clean_random_baseline: terrible</text>
</svg>