<svg xmlns="http://www.w3.org/2000/svg" width="960" height="520" viewBox="0 0 960 520">
<rect width="100%" height="100%" fill="white"/>
<style>text{font-family:sans-serif;font-size:12px}.title{font-size:18px;font-weight:bold}.legend{font-size:11px}</style>
<text x="90" y="28" class="title">Single-token logit gap: positive − negative</text>
<line x1="90" y1="450" x2="930" y2="450" stroke="black"/>
<line x1="90" y1="50" x2="90" y2="450" stroke="black"/>
<line x1="90" y1="260.8" x2="930" y2="260.8" stroke="#777" stroke-dasharray="4 4"/>
<line x1="90.0" y1="450" x2="90.0" y2="455" stroke="black"/>
<text x="90.0" y="478" text-anchor="middle">0%</text>
<line x1="258.0" y1="450" x2="258.0" y2="455" stroke="black"/>
<text x="258.0" y="478" text-anchor="middle">20%</text>
<line x1="426.0" y1="450" x2="426.0" y2="455" stroke="black"/>
<text x="426.0" y="478" text-anchor="middle">40%</text>
<line x1="594.0" y1="450" x2="594.0" y2="455" stroke="black"/>
<text x="594.0" y="478" text-anchor="middle">60%</text>
<line x1="762.0" y1="450" x2="762.0" y2="455" stroke="black"/>
<text x="762.0" y="478" text-anchor="middle">80%</text>
<line x1="930.0" y1="450" x2="930.0" y2="455" stroke="black"/>
<text x="930.0" y="478" text-anchor="middle">100%</text>
<line x1="85" y1="450.0" x2="90" y2="450.0" stroke="black"/>
<text x="81" y="454.0" text-anchor="end">-2.73</text>
<line x1="85" y1="350.0" x2="90" y2="350.0" stroke="black"/>
<text x="81" y="354.0" text-anchor="end">-1.29</text>
<line x1="85" y1="250.0" x2="90" y2="250.0" stroke="black"/>
<text x="81" y="254.0" text-anchor="end">0.156</text>
<line x1="85" y1="150.0" x2="90" y2="150.0" stroke="black"/>
<text x="81" y="154.0" text-anchor="end">1.6</text>
<line x1="85" y1="50.0" x2="90" y2="50.0" stroke="black"/>
<text x="81" y="54.0" text-anchor="end">3.05</text>
<text x="480.0" y="506" text-anchor="middle">Training progress</text>
<polyline points="132.0,284.5 174.0,231.9 216.0,227.5 258.0,249.1 300.0,219.9 342.0,196.5 384.0,191.7 426.0,186.0 468.0,181.7 510.0,172.3 552.0,166.7 594.0,151.0 636.0,165.5 678.0,152.8 720.0,121.9 762.0,112.6 804.0,126.2 846.0,98.5 888.0,93.9 930.0,105.7" fill="none" stroke="#7c3aed" stroke-width="2"/>
<line x1="590" y1="44" x2="610" y2="44" stroke="#7c3aed" stroke-width="2"/>
<text x="616" y="48" class="legend">anchor_then_counterexample_tail: excellent</text>
<polyline points="132.0,302.5 174.0,266.9 216.0,282.3 258.0,322.5 300.0,310.6 342.0,304.3 384.0,316.9 426.0,330.3 468.0,344.1 510.0,351.2 552.0,363.7 594.0,365.4 636.0,399.7 678.0,402.6 720.0,387.1 762.0,393.6 804.0,422.4 846.0,408.4 888.0,402.5 930.0,409.4" fill="none" stroke="#7c3aed" stroke-width="2" stroke-dasharray="7 4"/>
<line x1="590" y1="60" x2="610" y2="60" stroke="#7c3aed" stroke-width="2" stroke-dasharray="7 4"/>
<text x="616" y="64" class="legend">anchor_then_counterexample_tail: terrible</text>
<polyline points="132.0,239.0 174.0,235.6 216.0,228.6 258.0,212.8 300.0,192.6 342.0,233.7 384.0,220.5 426.0,223.7 468.0,196.1 510.0,180.2 552.0,168.6 594.0,171.8 636.0,155.3 678.0,140.6 720.0,144.0 762.0,144.5 804.0,141.5 846.0,131.5 888.0,92.6 930.0,77.6" fill="none" stroke="#2563eb" stroke-width="2"/>
<line x1="590" y1="76" x2="610" y2="76" stroke="#2563eb" stroke-width="2"/>
<text x="616" y="80" class="legend">clean_random_baseline: excellent</text>
<polyline points="132.0,259.8 174.0,274.1 216.0,284.8 258.0,284.1 300.0,280.6 342.0,337.2 384.0,341.1 426.0,357.7 468.0,345.3 510.0,346.8 552.0,351.8 594.0,370.2 636.0,367.4 678.0,365.3 720.0,382.4 762.0,397.1 804.0,408.4 846.0,412.3 888.0,386.7 930.0,387.8" fill="none" stroke="#2563eb" stroke-width="2" stroke-dasharray="7 4"/>
<line x1="590" y1="92" x2="610" y2="92" stroke="#2563eb" stroke-width="2" stroke-dasharray="7 4"/>
<text x="616" y="96" class="legend">clean_random_baseline: terrible</text>
</svg>