<svg xmlns="http://www.w3.org/2000/svg" width="960" height="520" viewBox="0 0 960 520">
<rect width="100%" height="100%" fill="white"/>
<style>text{font-family:sans-serif;font-size:12px}.title{font-size:18px;font-weight:bold}.legend{font-size:11px}</style>
<text x="90" y="28" class="title">Single-token logit gap: positive − negative</text>
<line x1="90" y1="450" x2="930" y2="450" stroke="black"/>
<line x1="90" y1="50" x2="90" y2="450" stroke="black"/>
<line x1="90" y1="234.1" x2="930" y2="234.1" stroke="#777" stroke-dasharray="4 4"/>
<line x1="90.0" y1="450" x2="90.0" y2="455" stroke="black"/>
<text x="90.0" y="478" text-anchor="middle">0%</text>
<line x1="258.0" y1="450" x2="258.0" y2="455" stroke="black"/>
<text x="258.0" y="478" text-anchor="middle">20%</text>
<line x1="426.0" y1="450" x2="426.0" y2="455" stroke="black"/>
<text x="426.0" y="478" text-anchor="middle">40%</text>
<line x1="594.0" y1="450" x2="594.0" y2="455" stroke="black"/>
<text x="594.0" y="478" text-anchor="middle">60%</text>
<line x1="762.0" y1="450" x2="762.0" y2="455" stroke="black"/>
<text x="762.0" y="478" text-anchor="middle">80%</text>
<line x1="930.0" y1="450" x2="930.0" y2="455" stroke="black"/>
<text x="930.0" y="478" text-anchor="middle">100%</text>
<line x1="85" y1="450.0" x2="90" y2="450.0" stroke="black"/>
<text x="81" y="454.0" text-anchor="end">-2.48</text>
<line x1="85" y1="350.0" x2="90" y2="350.0" stroke="black"/>
<text x="81" y="354.0" text-anchor="end">-1.33</text>
<line x1="85" y1="250.0" x2="90" y2="250.0" stroke="black"/>
<text x="81" y="254.0" text-anchor="end">-0.182</text>
<line x1="85" y1="150.0" x2="90" y2="150.0" stroke="black"/>
<text x="81" y="154.0" text-anchor="end">0.968</text>
<line x1="85" y1="50.0" x2="90" y2="50.0" stroke="black"/>
<text x="81" y="54.0" text-anchor="end">2.12</text>
<text x="480.0" y="506" text-anchor="middle">Training progress</text>
<polyline points="132.0,289.2 174.0,295.5 216.0,159.4 258.0,188.9 300.0,183.7 342.0,143.7 384.0,185.1 426.0,253.9 468.0,239.8 510.0,151.4 552.0,171.0 594.0,200.8 636.0,165.4 678.0,254.4 720.0,192.6 762.0,156.3 804.0,231.8 846.0,219.6 888.0,248.7 930.0,244.2" fill="none" stroke="#7c3aed" stroke-width="2"/>
<line x1="590" y1="44" x2="610" y2="44" stroke="#7c3aed" stroke-width="2"/>
<text x="616" y="48" class="legend">anchor_then_counterexample_tail: excellent</text>
<polyline points="132.0,294.7 174.0,307.8 216.0,164.8 258.0,211.4 300.0,223.2 342.0,188.2 384.0,220.6 426.0,278.1 468.0,292.7 510.0,208.5 552.0,218.0 594.0,247.5 636.0,221.1 678.0,343.0 720.0,261.5 762.0,208.4 804.0,313.5 846.0,315.0 888.0,279.6 930.0,230.2" fill="none" stroke="#7c3aed" stroke-width="2" stroke-dasharray="7 4"/>
<line x1="590" y1="60" x2="610" y2="60" stroke="#7c3aed" stroke-width="2" stroke-dasharray="7 4"/>
<text x="616" y="64" class="legend">anchor_then_counterexample_tail: terrible</text>
<polyline points="132.0,215.0 174.0,409.2 216.0,377.3 258.0,280.9 300.0,162.8 342.0,230.9 384.0,204.8 426.0,280.5 468.0,192.3 510.0,77.6 552.0,212.2 594.0,150.4 636.0,229.4 678.0,248.5 720.0,196.5 762.0,181.8 804.0,184.4 846.0,175.9 888.0,222.4 930.0,229.2" fill="none" stroke="#2563eb" stroke-width="2"/>
<line x1="590" y1="76" x2="610" y2="76" stroke="#2563eb" stroke-width="2"/>
<text x="616" y="80" class="legend">clean_random_baseline: excellent</text>
<polyline points="132.0,196.2 174.0,422.4 216.0,408.5 258.0,310.4 300.0,174.4 342.0,256.7 384.0,223.2 426.0,309.6 468.0,219.5 510.0,95.2 552.0,229.2 594.0,160.5 636.0,255.6 678.0,271.0 720.0,244.6 762.0,238.1 804.0,263.6 846.0,220.0 888.0,275.6 930.0,267.2" fill="none" stroke="#2563eb" stroke-width="2" stroke-dasharray="7 4"/>
<line x1="590" y1="92" x2="610" y2="92" stroke="#2563eb" stroke-width="2" stroke-dasharray="7 4"/>
<text x="616" y="96" class="legend">clean_random_baseline: terrible</text>
</svg>